<?xml version="1.0" encoding="UTF-8"?>
<svg id="Layer_1" data-name="Layer 1" xmlns="http://www.w3.org/2000/svg" viewBox="0 0 1080 432.95">
  <defs>
    <style>
      .cls-1 {
        fill: #f9f9f9;
      }
    </style>
  </defs>
  <path class="cls-1" d="M492.83,198.21h-47.15V0h47.15v198.21ZM556.48,26.17h3.59l24.86,17.31v154.72h46.89V39.57L594.6-.13h-85.41v198.34h47.28V26.17ZM932.19,0v47.15h26.31l16.89-16.89h7.2v167.94h47.02V30.26h7.32l16.75,16.89h26.32V0h-147.81ZM379.48,406.78h-8.06l-28.69-17.96v-154.07h-47.15v160.41l34.1,37.8h96.96v-198.21h-47.15v172.03ZM503.25,406.65h-12.89v-57.6h33.64v-30.26h-33.64v-57.73h8.85l32.32,20.84h33.56l-.21-26.75-25.18-20.41-96.35.15v198.06h100.81l25.36-20.26v-26.76h-33.19l-33.08,20.71ZM639.41,406.65h-12.77v-171.9h-47.15v198.21h102.49l11.67-21.79.2-25.36h-21.01l-33.43,20.84ZM675.38,281.9h26.31l16.89-16.89h7.2v167.94h47.02v-167.94h7.32l16.75,16.89h26.32v-47.15h-147.81v47.15ZM832.16,281.9h26.31l16.89-16.89h32.17l-75.05,142.17-.31.59v25.18h131.06v-47.15h-26.29l-17.02,16.89h-32.18l75.49-142.76v-25.18h-131.06v47.15ZM140.03,123.42v40.96l-37.54,33.83H0V-.13h97.08l34.24,37.65v38.74l-17.03,18.65,25.73,28.51ZM48.47,82.32h36.89v-42.42l-28.38-17.29h-8.51v59.71ZM95.51,129.16l-27.84-17.23h-17.75v42.27l28.56,17.84h17.04v-42.87ZM282.04,96.96l-20.96,18.91,20.96,19.03v63.31h-47.02v-67.15h-36.89v67.15h-47.15V0h96.96l34.1,37.66v59.3ZM234.89,43.57l-28.01-17.39h-8.74v60.74l28.48,17.83h8.27v-61.18ZM429.32,37.93v160.28h-47.02v-67.15h-36.89v67.15h-47.02V34.23L336.06.13h59.17l34.1,37.8ZM382.3,43.7l-28.14-17.4h-8.75v60.73l28.81,17.85h8.08v-61.18ZM779.23,96.96l-20.96,18.91,20.96,19.03v63.31h-47.02v-67.15h-36.89v67.15h-47.15V0h96.96l34.1,37.66v59.3ZM732.07,43.57l-28.01-17.39h-8.74v60.74l28.48,17.83h8.27v-61.18ZM926.64,37.8v122.61l-34.1,37.8h-62.87l-34.1-37.8V37.8L829.68,0h62.87l34.1,37.8ZM879.49,43.58l-28.03-17.4h-8.73v127.9l28.69,17.96h8.06V43.58ZM278.87,272.27v130.34l-37.78,30.34h-92.35v-198.21h96.02l34.11,37.52ZM229.21,275.5l-27.79-17.61h-7.91v127.86l28.92,17.74h6.78v-127.98Z"/>
</svg>